# 3ds Max Wavefront OBJ Exporter v0.97b - (c)2007 guruware
# File Created: 26.02.2015 17:50:30

mtllib Plataforma2.mtl

#
# object Hedra001
#

v  1.2403 -1.8404 112.0941
v  44.4173 -25.5413 113.4864
v  124.7072 -27.2048 76.1202
v  155.3880 -5.7227 -42.0535
v  44.4173 21.1208 -62.6393
v  1.2403 19.8334 -19.4624
v  112.2111 -44.1291 1.1234
v  -109.7304 -54.5518 1.1234
v  -152.9073 -17.9297 -42.0535
v  -41.9366 21.1208 -62.6393
v  -92.2336 -27.4276 64.8870
v  -41.9366 -25.5413 113.4864
# 12 vertices

vn 0.2780 0.9078 0.3140
vn 0.1857 0.9673 0.1730
vn 0.0322 -0.7545 -0.6555
vn 0.0164 -0.5298 -0.8480
vn -0.3996 0.8564 0.3270
vn -0.2597 0.9471 0.1886
vn 0.0155 -0.9540 0.2995
vn -0.0008 -0.9992 0.0410
vn 0.0000 0.9996 0.0298
vn 0.0000 0.0586 0.9983
vn 0.6902 -0.7220 0.0479
vn -0.7926 -0.4516 0.4096
# 12 vertex normals

vt -0.3599 0.5000 0.0000
vt -0.5000 0.2812 0.1401
vt -0.1401 -0.2812 0.5000
vt 0.1401 -0.2812 0.5000
vt 0.5000 0.2812 0.1401
vt 0.3599 0.5000 0.0000
vt -0.2812 0.5000 0.1401
vt -0.5000 0.3599 -0.0000
vt -0.5000 -0.3599 0.0000
vt -0.2812 -0.5000 0.1401
vt 0.2812 -0.1401 0.5000
vt 0.2812 0.1401 0.5000
vt 0.1401 -0.2812 -0.5000
vt -0.1401 -0.2812 -0.5000
vt -0.5000 0.2812 -0.1401
vt 0.5000 0.2812 -0.1401
vt -0.2812 -0.5000 -0.1401
vt -0.2812 0.5000 -0.1401
vt 0.2812 0.1401 -0.5000
vt 0.2812 -0.1401 -0.5000
vt 0.5000 0.0000 0.3599
vt 0.5000 0.0000 -0.3599
vt -0.0000 -0.5000 0.3599
vt 0.0000 -0.5000 -0.3599
# 24 texture coords

g Hedra001
usemtl wire_006135058
s off
f 1/1/1 2/2/1 3/3/1 4/4/1 
f 1/1/2 4/4/2 5/5/2 6/6/2 
f 4/7/3 7/8/3 8/9/3 9/10/3 
f 4/7/4 9/10/4 10/11/4 5/12/4 
f 9/13/5 11/14/5 12/15/5 1/1/5 
f 9/13/6 1/1/6 6/6/6 10/16/6 
f 11/17/7 8/9/7 7/8/7 3/18/7 
f 11/17/8 3/18/8 2/19/8 12/20/8 
f 5/12/9 10/11/9 6/21/9 
f 12/20/10 2/19/10 1/22/10 
f 3/3/11 7/23/11 4/4/11 
f 11/14/12 9/13/12 8/24/12 
# 8 polygons - 4 triangles

