# 3ds Max Wavefront OBJ Exporter v0.97b - (c)2007 guruware
# File Created: 26.02.2015 17:57:51

mtllib Plataforma4.mtl

#
# object Gengon001
#

v  -24.6119 101.4814 -13.2889
v  239.9819 77.4672 66.2145
v  239.9819 77.4672 -92.7924
v  110.0519 94.1438 -348.4070
v  4.2522 94.1438 -397.5428
v  -205.9789 94.1438 -299.9067
v  -271.3668 77.4672 -171.2674
v  -271.3668 1.0228 144.6896
v  -205.9789 1.0228 273.3289
v  4.2522 1.0228 370.9649
v  110.0520 1.0228 321.8291
v  239.9819 -18.3557 -92.7924
v  239.9819 -18.3557 66.2145
v  110.0519 -1.6791 -348.4070
v  4.2522 2.8738 -397.5428
v  -205.9789 2.8738 -299.9067
v  -271.3668 -13.8028 -171.2674
v  -271.3668 -66.4744 144.6896
v  -205.9789 -66.4744 273.3289
v  4.2522 -18.3557 370.9649
v  110.0520 -18.3557 321.8291
v  -24.6119 -18.3557 -13.2889
# 22 vertices

vn 0.0904 0.9959 -0.0000
vn 0.0953 0.9953 0.0165
vn 0.0086 0.9998 -0.0184
vn -0.0092 0.9998 -0.0198
vn -0.1346 0.9891 0.0598
vn -0.2381 0.9440 0.2284
vn -0.2904 0.9454 0.1476
vn -0.1205 0.9582 0.2596
vn 0.1130 0.9633 0.2434
vn 0.0007 0.9580 0.2869
vn 1.0000 0.0000 -0.0000
vn 0.8914 0.0000 -0.4531
vn 0.4212 0.0000 -0.9070
vn -0.4212 0.0000 -0.9070
vn -0.8914 0.0000 -0.4531
vn -1.0000 0.0000 0.0000
vn -0.8914 0.0000 0.4531
vn -0.4212 0.0000 0.9070
vn 0.4212 0.0000 0.9070
vn 0.8914 0.0000 0.4531
vn 0.0000 -1.0000 -0.0000
vn -0.0170 -0.9983 -0.0565
vn -0.0168 -0.9983 -0.0564
vn -0.0265 -0.9980 -0.0571
vn 0.0484 -0.9934 -0.1042
vn 0.0867 -0.9827 -0.1638
vn 0.1452 -0.9867 -0.0738
vn 0.2307 -0.9729 -0.0173
# 28 vertex normals

vt 0.5000 0.5000 0.0000
vt 0.9338 0.4088 0.0000
vt 0.9338 0.5912 0.0000
vt 0.7208 0.8843 0.0000
vt 0.5473 0.9407 0.0000
vt 0.2027 0.8287 0.0000
vt 0.0955 0.6812 0.0000
vt 0.0955 0.3188 0.0000
vt 0.2027 0.1713 0.0000
vt 0.5473 0.0593 0.0000
vt 0.7208 0.1157 0.0000
vt 0.0764 0.0000 0.0000
vt 0.0764 1.0000 0.0000
vt 0.0000 1.0000 0.0000
vt 0.0000 0.0000 0.0000
vt 0.2000 0.0000 0.0000
vt 0.2000 1.0000 0.0000
vt 0.2764 0.0000 0.0000
vt 0.2764 1.0000 0.0000
vt 0.4000 0.0000 0.0000
vt 0.4000 1.0000 0.0000
vt 0.4764 0.0000 0.0000
vt 0.4764 1.0000 0.0000
vt 0.6000 0.0000 0.0000
vt 0.6000 1.0000 0.0000
vt 0.6764 0.0000 0.0000
vt 0.6764 1.0000 0.0000
vt 0.8000 0.0000 0.0000
vt 0.8000 1.0000 0.0000
vt 0.8764 0.0000 0.0000
vt 0.8764 1.0000 0.0000
vt 1.0000 0.0000 0.0000
vt 1.0000 1.0000 0.0000
# 33 texture coords

g Gengon001
usemtl wire_225087143
s off
f 1/1/1 2/2/1 3/3/1 
f 1/1/2 3/3/2 4/4/2 
f 1/1/3 4/4/3 5/5/3 
f 1/1/4 5/5/4 6/6/4 
f 1/1/5 6/6/5 7/7/5 
f 1/1/6 7/7/6 8/8/6 
f 1/1/7 8/8/7 9/9/7 
f 1/1/8 9/9/8 10/10/8 
f 1/1/9 10/10/9 11/11/9 
f 1/1/10 11/11/10 2/2/10 
f 12/12/11 3/13/11 2/14/11 13/15/11 
f 14/16/12 4/17/12 3/13/12 12/12/12 
f 15/18/13 5/19/13 4/17/13 14/16/13 
f 16/20/14 6/21/14 5/19/14 15/18/14 
f 17/22/15 7/23/15 6/21/15 16/20/15 
f 18/24/16 8/25/16 7/23/16 17/22/16 
f 19/26/17 9/27/17 8/25/17 18/24/17 
f 20/28/18 10/29/18 9/27/18 19/26/18 
f 21/30/19 11/31/19 10/29/19 20/28/19 
f 13/32/20 2/33/20 11/31/20 21/30/20 
f 13/2/21 22/1/21 12/3/21 
f 12/3/22 22/1/22 14/4/22 
f 14/4/23 22/1/23 15/5/23 
f 15/5/24 22/1/24 16/6/24 
f 16/6/25 22/1/25 17/7/25 
f 17/7/26 22/1/26 18/8/26 
f 18/8/27 22/1/27 19/9/27 
f 19/9/28 22/1/28 20/10/28 
f 20/10/21 22/1/21 21/11/21 
f 21/11/21 22/1/21 13/2/21 
# 10 polygons - 20 triangles

