# 3ds Max Wavefront OBJ Exporter v0.97b - (c)2007 guruware
# File Created: 26.02.2015 17:54:09

mtllib Plataforma3.mtl

#
# object Spindle001
#

v  144.4403 71.5685 -28.4395
v  144.4605 141.8784 -28.4395
v  144.4578 141.8784 -28.4496
v  144.4504 141.8784 -28.4570
v  144.4403 141.8784 -28.4597
v  144.4303 141.8784 -28.4570
v  144.4229 141.8784 -28.4496
v  144.4202 141.8784 -28.4395
v  144.4229 141.8784 -28.4295
v  144.4303 141.8784 -28.4221
v  144.4403 141.8784 -28.4194
v  144.4504 141.8784 -28.4221
v  144.4578 141.8784 -28.4295
v  194.2499 107.9335 -57.1971
v  201.9555 107.9335 -28.4395
v  173.1979 107.9335 -78.2491
v  144.4403 107.9335 -85.9547
v  115.6827 139.0783 -78.2491
v  94.6307 139.0783 -57.1971
v  86.9251 139.0783 -28.4395
v  94.6307 139.0783 0.3180
v  115.6827 139.0783 21.3701
v  144.4403 139.0783 29.0756
v  173.1979 107.9335 21.3701
v  194.2499 107.9335 0.3181
v  244.0421 105.1334 -85.9446
v  259.4505 105.1334 -28.4395
v  201.9454 105.1334 -128.0413
v  144.4403 105.1334 -143.4497
v  86.9352 136.2782 -128.0413
v  44.8386 136.2782 -85.9446
v  29.4301 136.2782 -28.4396
v  44.8386 136.2782 29.0655
v  86.9352 136.2782 71.1622
v  144.4403 136.2782 86.5706
v  201.9454 105.1334 71.1622
v  244.0420 105.1334 29.0656
v  293.8342 63.1682 -114.6921
v  316.9455 63.1682 -28.4395
v  230.6929 63.1682 -177.8334
v  144.4403 63.1682 -200.9447
v  58.1877 133.4781 -177.8334
v  -4.9536 133.4781 -114.6921
v  -28.0649 133.4781 -28.4396
v  -4.9536 133.4781 57.8130
v  58.1877 133.4781 120.9543
v  144.4402 63.1682 144.0657
v  230.6928 63.1682 120.9544
v  293.8342 63.1682 57.8132
v  343.6263 60.3681 -143.4397
v  374.4406 60.3681 -28.4395
v  259.4404 60.3681 -227.6256
v  144.4403 60.3681 -258.4398
v  29.4402 60.3681 -227.6256
v  -54.7457 130.6780 -143.4397
v  -85.5599 130.6780 -28.4396
v  -54.7457 130.6780 86.5605
v  29.4401 60.3681 170.7465
v  144.4402 60.3681 157.2417
v  259.4403 60.3681 126.4276
v  343.6263 60.3681 86.5607
v  393.4185 57.5680 -172.1872
v  431.9355 57.5680 -28.4395
v  288.1879 57.5680 -277.4177
v  144.4403 57.5680 -315.9348
v  0.6927 57.5680 -277.4177
v  -104.5378 127.8779 -172.1872
v  -143.0549 98.9723 -28.4396
v  -104.5379 98.9723 115.3080
v  0.6926 57.5680 176.2196
v  144.4402 57.5680 171.1065
v  288.1878 57.5680 132.5895
v  393.4184 57.5680 115.3083
v  393.4185 20.1293 -172.1871
v  431.9355 20.1293 -28.4395
v  288.1879 20.1293 -277.4177
v  144.4403 20.1293 -315.9348
v  0.6927 20.1293 -277.4177
v  -104.5378 20.1293 -172.1872
v  -143.0549 50.1877 -28.4396
v  -104.5379 50.1877 115.3080
v  0.6926 20.1293 176.2196
v  144.4402 20.1293 171.1065
v  288.1878 20.1293 132.5895
v  393.4184 20.1293 70.9892
v  343.6263 17.3292 -143.4397
v  374.4406 17.3292 -28.4395
v  259.4404 17.3292 -227.6256
v  144.4403 17.3292 -258.4398
v  29.4402 17.3292 -227.6256
v  -54.7457 17.3292 -143.4397
v  -85.5599 17.3292 -28.4396
v  -54.7457 17.3292 86.5605
v  29.4401 17.3292 170.7465
v  144.4402 17.3292 157.2417
v  259.4403 17.3292 126.4276
v  343.6263 17.3292 86.5607
v  293.8342 14.5291 -114.6921
v  316.9455 14.5291 -28.4395
v  230.6929 14.5291 -177.8334
v  144.4403 14.5291 -200.9447
v  58.1877 14.5291 -177.8334
v  -4.9536 14.5291 -114.6921
v  -28.0649 14.5291 -28.4396
v  -4.9536 14.5291 57.8130
v  58.1877 14.5291 120.9543
v  144.4402 14.5291 144.0657
v  230.6928 14.5291 120.9544
v  293.8342 14.5291 57.8132
v  244.0421 11.7290 -85.9446
v  259.4505 11.7290 -28.4395
v  201.9454 11.7290 -128.0413
v  144.4403 11.7290 -143.4497
v  86.9352 11.7290 -128.0413
v  44.8386 11.7290 -85.9446
v  29.4301 11.7290 -28.4396
v  44.8386 11.7290 29.0655
v  86.9352 11.7290 71.1622
v  144.4403 11.7290 86.5706
v  201.9454 11.7290 71.1622
v  244.0420 11.7290 29.0656
v  194.2499 8.9289 -57.1971
v  201.9555 8.9289 -28.4395
v  173.1979 8.9289 -78.2491
v  144.4403 8.9289 -85.9547
v  115.6827 8.9289 -78.2491
v  94.6307 8.9289 -57.1971
v  86.9251 8.9289 -28.4395
v  94.6307 8.9289 0.3180
v  115.6827 8.9289 21.3701
v  144.4403 8.9289 29.0756
v  173.1979 8.9289 21.3701
v  194.2499 8.9289 0.3181
v  144.4578 6.1288 -28.4496
v  144.4605 6.1288 -28.4395
v  144.4504 6.1288 -28.4570
v  144.4403 6.1288 -28.4597
v  144.4302 6.1288 -28.4570
v  144.4229 6.1288 -28.4496
v  144.4202 6.1288 -28.4395
v  144.4229 6.1288 -28.4295
v  144.4302 6.1288 -28.4221
v  144.4403 6.1288 -28.4194
v  144.4504 6.1288 -28.4221
v  144.4578 6.1288 -28.4295
v  144.4403 6.1288 -28.4395
# 146 vertices

vn 1.0000 0.0000 -0.0000
vn -1.0000 0.0003 -0.0000
vn -0.8660 0.0003 0.5001
vn -0.5000 0.0003 0.8660
vn -0.0000 0.0003 1.0000
vn 0.5000 0.0003 0.8660
vn 0.8660 0.0003 0.5001
vn 1.0000 0.0003 0.0000
vn 0.8660 0.0003 -0.5001
vn 0.5000 0.0003 -0.8660
vn 0.0000 0.0003 -1.0000
vn -0.5000 0.0003 -0.8660
vn -0.8660 0.0003 -0.5001
vn 0.2160 0.9684 -0.1247
vn 0.4403 0.8611 -0.2543
vn 0.5084 0.8611 0.0000
vn 0.2494 0.9684 -0.0000
vn 0.1247 0.9684 -0.2160
vn 0.2542 0.8611 -0.4403
vn 0.3244 0.9054 -0.2738
vn 0.1828 0.9202 -0.3461
vn 0.3219 0.9165 -0.2374
vn -0.0243 0.9988 -0.0421
vn -0.0421 0.9988 -0.0243
vn -0.0486 0.9988 0.0000
vn -0.0486 0.9988 -0.0000
vn -0.0421 0.9988 0.0243
vn -0.0243 0.9988 0.0421
vn 0.3424 0.9396 -0.0043
vn 0.1860 0.9577 0.2196
vn 0.4520 0.8920 -0.0010
vn 0.2542 0.8611 0.4403
vn 0.2160 0.9684 0.1247
vn 0.4403 0.8611 0.2542
vn 0.3240 0.9274 -0.1871
vn 0.3742 0.9274 0.0000
vn 0.1871 0.9274 -0.3240
vn 0.2943 0.8926 -0.3415
vn 0.2230 0.9639 -0.1457
vn 0.0577 0.9754 0.2129
vn 0.1473 0.8803 0.4510
vn 0.4247 0.8771 0.2245
vn 0.3240 0.9274 0.1871
vn 0.2506 0.9572 -0.1447
vn 0.2894 0.9572 0.0000
vn 0.1447 0.9572 -0.2506
vn 0.1400 0.9183 -0.3702
vn 0.0788 0.8491 -0.5223
vn -0.0483 0.9814 0.1859
vn -0.0210 0.8563 0.5161
vn 0.2992 0.8576 0.4184
vn 0.2018 0.9177 0.3422
vn 0.2506 0.9572 0.1447
vn 0.0421 0.9988 -0.0243
vn 0.0486 0.9988 0.0000
vn 0.0243 0.9988 -0.0421
vn -0.0000 0.9988 -0.0486
vn 0.0930 0.9047 -0.4158
vn -0.0480 0.9760 -0.2123
vn -0.3069 0.9518 -0.0000
vn -0.1300 0.9305 0.3424
vn -0.0113 0.7843 0.6203
vn 0.1552 0.9440 0.2912
vn 0.0573 0.9835 0.1717
vn 0.0393 0.9987 0.0331
vn 0.1727 0.9728 -0.1544
vn 0.0651 0.9871 -0.1462
vn -0.4368 0.8984 0.0456
vn -0.3050 0.8565 0.4164
vn 0.0120 0.7836 0.6211
vn 0.0366 0.9784 0.2033
vn 0.0427 0.9695 0.2414
vn 0.0413 0.9985 0.0351
vn 0.8660 -0.0000 -0.5000
vn 1.0000 -0.0000 0.0000
vn 0.9994 -0.0349 0.0084
vn 0.5000 -0.0000 -0.8660
vn -0.0000 -0.0000 -1.0000
vn -0.0000 0.0000 -1.0000
vn -0.5000 -0.0000 -0.8660
vn -0.5283 0.0000 -0.8491
vn -0.8568 0.0000 -0.5156
vn -0.8790 0.0000 -0.4767
vn -0.9999 0.0000 -0.0160
vn -0.9999 0.0000 -0.0154
vn -0.7753 0.0000 0.6316
vn -0.8221 0.0000 0.5694
vn -0.2188 0.0000 0.9758
vn -0.2685 0.0000 0.9633
vn 0.1481 0.0000 0.9890
vn 0.3855 0.0000 0.9227
vn 0.3504 -0.1134 0.9297
vn 0.6943 -0.5093 0.5085
vn 0.3942 -0.6873 0.6101
vn 0.0421 -0.9988 -0.0243
vn 0.0486 -0.9988 0.0022
vn 0.0496 -0.9988 0.0015
vn 0.0243 -0.9988 -0.0421
vn 0.0000 -0.9988 -0.0486
vn -0.0243 -0.9988 -0.0421
vn -0.0421 -0.9988 -0.0243
vn -0.1190 -0.9928 -0.0140
vn -0.2877 -0.9564 0.0497
vn -0.4941 -0.8645 0.0918
vn -0.2729 -0.9491 0.1576
vn -0.4296 -0.8804 0.2011
vn -0.0026 -0.8911 0.4539
vn -0.1279 -0.9741 -0.1865
vn 0.0356 -0.9781 0.2051
vn 0.0277 -0.9798 0.1979
vn 0.0600 -0.9879 0.1432
vn 0.0670 -0.9859 0.1532
vn 0.0782 -0.9911 0.1073
vn 0.0638 -0.9974 0.0343
vn 0.0486 -0.9988 0.0000
vn -0.0000 -0.9988 -0.0486
vn -0.0486 -0.9988 -0.0000
vn -0.0421 -0.9988 0.0243
vn -0.0243 -0.9988 0.0421
vn 0.0205 -0.9914 0.1294
vn 0.0467 -0.9918 0.1193
vn 0.0420 -0.9986 0.0310
vn -0.0000 -0.9988 0.0486
vn 0.0243 -0.9988 0.0421
vn 0.0421 -0.9988 0.0243
vn 0.0486 -0.9988 -0.0000
vn 0.0000 -1.0000 -0.0000
# 127 vertex normals

vt 0.5000 0.5000 0.0000
vt 0.5866 0.5500 0.0000
vt 0.6000 0.5000 0.0000
vt 0.5500 0.5866 0.0000
vt 0.5000 0.6000 0.0000
vt 0.4500 0.5866 0.0000
vt 0.4134 0.5500 0.0000
vt 0.4000 0.5000 0.0000
vt 0.4134 0.4500 0.0000
vt 0.4500 0.4134 0.0000
vt 0.5000 0.4000 0.0000
vt 0.5500 0.4134 0.0000
vt 0.5866 0.4500 0.0000
vt 0.6732 0.6000 0.0000
vt 0.7000 0.5000 0.0000
vt 0.6000 0.6732 0.0000
vt 0.5000 0.7000 0.0000
vt 0.4000 0.6732 0.0000
vt 0.3268 0.6000 0.0000
vt 0.3000 0.5000 0.0000
vt 0.3268 0.4000 0.0000
vt 0.4000 0.3268 0.0000
vt 0.5000 0.3000 0.0000
vt 0.6000 0.3268 0.0000
vt 0.6732 0.4000 0.0000
vt 0.7598 0.6500 0.0000
vt 0.8000 0.5000 0.0000
vt 0.6500 0.7598 0.0000
vt 0.5000 0.8000 0.0000
vt 0.3500 0.7598 0.0000
vt 0.2402 0.6500 0.0000
vt 0.2000 0.5000 0.0000
vt 0.2402 0.3500 0.0000
vt 0.3500 0.2402 0.0000
vt 0.5000 0.2000 0.0000
vt 0.6500 0.2402 0.0000
vt 0.7598 0.3500 0.0000
vt 0.8464 0.7000 0.0000
vt 0.9000 0.5000 0.0000
vt 0.7000 0.8464 0.0000
vt 0.5000 0.9000 0.0000
vt 0.3000 0.8464 0.0000
vt 0.1536 0.7000 0.0000
vt 0.1000 0.5000 0.0000
vt 0.1536 0.3000 0.0000
vt 0.3000 0.1536 0.0000
vt 0.5000 0.1000 0.0000
vt 0.7000 0.1536 0.0000
vt 0.8464 0.3000 0.0000
vt 0.9330 0.7500 0.0000
vt 1.0000 0.5000 0.0000
vt 0.7500 0.9330 0.0000
vt 0.5000 1.0000 0.0000
vt 0.2500 0.9330 0.0000
vt 0.0670 0.7500 0.0000
vt 0.0000 0.5000 0.0000
vt 0.0670 0.2500 0.0000
vt 0.2500 0.0670 0.0000
vt 0.5000 0.0000 0.0000
vt 0.7500 0.0670 0.0000
vt 0.9330 0.2500 0.0000
vt 0.0833 0.0000 0.0000
vt 0.0833 1.0000 0.0000
vt 0.0000 1.0000 0.0000
vt 0.0000 0.0000 0.0000
vt 0.1667 0.0000 0.0000
vt 0.1667 1.0000 0.0000
vt 0.2500 0.0000 0.0000
vt 0.2500 1.0000 0.0000
vt 0.3333 0.0000 0.0000
vt 0.3333 1.0000 0.0000
vt 0.4167 0.0000 0.0000
vt 0.4167 1.0000 0.0000
vt 0.5833 0.0000 0.0000
vt 0.5833 1.0000 0.0000
vt 0.6667 0.0000 0.0000
vt 0.6667 1.0000 0.0000
vt 0.7500 0.0000 0.0000
vt 0.7500 1.0000 0.0000
vt 0.8333 0.0000 0.0000
vt 0.8333 1.0000 0.0000
vt 0.9167 0.0000 0.0000
vt 0.9167 1.0000 0.0000
vt 1.0000 0.0000 0.0000
vt 1.0000 1.0000 0.0000
# 85 texture coords

g Spindle001
usemtl wire_006135058
s 16
f 1/1/1 2/1/2 3/1/3 
f 1/1/1 3/1/3 4/1/4 
f 1/1/1 4/1/4 5/1/5 
f 1/1/1 5/1/5 6/1/6 
f 1/1/1 6/1/6 7/1/7 
f 1/1/1 7/1/7 8/1/8 
f 1/1/1 8/1/8 9/1/9 
f 1/1/1 9/1/9 10/1/10 
f 1/1/1 10/1/10 11/1/11 
f 1/1/1 11/1/11 12/1/12 
f 1/1/1 12/1/12 13/1/13 
f 1/1/1 13/1/13 2/1/2 
s 4
f 14/2/14 3/1/15 2/1/16 15/3/17 
f 16/4/18 4/1/19 3/1/15 14/2/14 
f 17/5/20 5/1/21 4/1/19 16/4/18 
f 18/6/22 6/1/23 5/1/21 17/5/20 
f 19/7/24 7/1/24 6/1/23 18/6/22 
f 20/8/25 8/1/26 7/1/24 19/7/24 
f 21/9/27 9/1/27 8/1/26 20/8/25 
f 22/10/28 10/1/28 9/1/27 21/9/27 
f 23/11/29 11/1/30 10/1/28 22/10/28 
f 24/12/31 12/1/32 11/1/30 23/11/29 
f 25/13/33 13/1/34 12/1/32 24/12/31 
f 15/3/17 2/1/16 13/1/34 25/13/33 
f 26/14/35 14/2/14 15/3/17 27/15/36 
f 28/16/37 16/4/18 14/2/14 26/14/35 
f 29/17/38 17/5/20 16/4/18 28/16/37 
f 30/18/39 18/6/22 17/5/20 29/17/38 
f 31/19/24 19/7/24 18/6/22 30/18/39 
f 32/20/26 20/8/25 19/7/24 31/19/24 
f 33/21/27 21/9/27 20/8/25 32/20/26 
f 34/22/40 22/10/28 21/9/27 33/21/27 
f 35/23/41 23/11/29 22/10/28 34/22/40 
f 36/24/42 24/12/31 23/11/29 35/23/41 
f 37/25/43 25/13/33 24/12/31 36/24/42 
f 27/15/36 15/3/17 25/13/33 37/25/43 
f 38/26/44 26/14/35 27/15/36 39/27/45 
f 40/28/46 28/16/37 26/14/35 38/26/44 
f 41/29/47 29/17/38 28/16/37 40/28/46 
f 42/30/48 30/18/39 29/17/38 41/29/47 
f 43/31/24 31/19/24 30/18/39 42/30/48 
f 44/32/26 32/20/26 31/19/24 43/31/24 
f 45/33/49 33/21/27 32/20/26 44/32/26 
f 46/34/50 34/22/40 33/21/27 45/33/49 
f 47/35/51 35/23/41 34/22/40 46/34/50 
f 48/36/52 36/24/42 35/23/41 47/35/51 
f 49/37/53 37/25/43 36/24/42 48/36/52 
f 39/27/45 27/15/36 37/25/43 49/37/53 
f 50/38/54 38/26/44 39/27/45 51/39/55 
f 52/40/56 40/28/46 38/26/44 50/38/54 
f 53/41/57 41/29/47 40/28/46 52/40/56 
f 54/42/58 42/30/48 41/29/47 53/41/57 
f 55/43/59 43/31/24 42/30/48 54/42/58 
f 56/44/60 44/32/26 43/31/24 55/43/59 
f 57/45/61 45/33/49 44/32/26 56/44/60 
f 58/46/62 46/34/50 45/33/49 57/45/61 
f 59/47/63 47/35/51 46/34/50 58/46/62 
f 60/48/64 48/36/52 47/35/51 59/47/63 
f 61/49/65 49/37/53 48/36/52 60/48/64 
f 51/39/55 39/27/45 49/37/53 61/49/65 
f 62/50/54 50/38/54 51/39/55 63/51/55 
f 64/52/56 52/40/56 50/38/54 62/50/54 
f 65/53/57 53/41/57 52/40/56 64/52/56 
f 66/54/66 54/42/58 53/41/57 65/53/57 
f 67/55/67 55/43/59 54/42/58 66/54/66 
f 68/56/68 56/44/60 55/43/59 67/55/67 
f 69/57/69 57/45/61 56/44/60 68/56/68 
f 70/58/70 58/46/62 57/45/61 69/57/69 
f 71/59/71 59/47/63 58/46/62 70/58/70 
f 72/60/72 60/48/64 59/47/63 71/59/71 
f 73/61/73 61/49/65 60/48/64 72/60/72 
f 63/51/55 51/39/55 61/49/65 73/61/73 
s 8
f 74/62/74 62/63/74 63/64/75 75/65/76 
f 76/66/77 64/67/77 62/63/74 74/62/74 
f 77/68/78 65/69/79 64/67/77 76/66/77 
f 78/70/80 66/71/81 65/69/79 77/68/78 
f 79/72/82 67/73/83 66/71/81 78/70/80 
f 80/59/84 68/53/85 67/73/83 79/72/82 
f 81/74/86 69/75/87 68/53/85 80/59/84 
f 82/76/88 70/77/89 69/75/87 81/74/86 
f 83/78/90 71/79/90 70/77/89 82/76/88 
f 84/80/91 72/81/92 71/79/90 83/78/90 
f 85/82/93 73/83/94 72/81/92 84/80/91 
f 75/84/76 63/85/75 73/83/94 85/82/93 
s 4
f 86/38/95 74/50/95 75/51/96 87/39/97 
f 88/40/98 76/52/98 74/50/95 86/38/95 
f 89/41/99 77/53/99 76/52/98 88/40/98 
f 90/42/100 78/54/100 77/53/99 89/41/99 
f 91/43/101 79/55/102 78/54/100 90/42/100 
f 92/44/103 80/56/104 79/55/102 91/43/101 
f 93/45/105 81/57/106 80/56/104 92/44/103 
f 94/46/107 82/58/108 81/57/106 93/45/105 
f 95/47/109 83/59/110 82/58/108 94/46/107 
f 96/48/111 84/60/112 83/59/110 95/47/109 
f 97/49/113 85/61/114 84/60/112 96/48/111 
f 87/39/97 75/51/96 85/61/114 97/49/113 
f 98/26/95 86/38/95 87/39/97 99/27/115 
f 100/28/98 88/40/98 86/38/95 98/26/95 
f 101/29/116 89/41/99 88/40/98 100/28/98 
f 102/30/100 90/42/100 89/41/99 101/29/116 
f 103/31/101 91/43/101 90/42/100 102/30/100 
f 104/32/117 92/44/103 91/43/101 103/31/101 
f 105/33/118 93/45/105 92/44/103 104/32/117 
f 106/34/119 94/46/107 93/45/105 105/33/118 
f 107/35/120 95/47/109 94/46/107 106/34/119 
f 108/36/121 96/48/111 95/47/109 107/35/120 
f 109/37/122 97/49/113 96/48/111 108/36/121 
f 99/27/115 87/39/97 97/49/113 109/37/122 
f 110/14/95 98/26/95 99/27/115 111/15/115 
f 112/16/98 100/28/98 98/26/95 110/14/95 
f 113/17/116 101/29/116 100/28/98 112/16/98 
f 114/18/100 102/30/100 101/29/116 113/17/116 
f 115/19/101 103/31/101 102/30/100 114/18/100 
f 116/20/117 104/32/117 103/31/101 115/19/101 
f 117/21/118 105/33/118 104/32/117 116/20/117 
f 118/22/119 106/34/119 105/33/118 117/21/118 
f 119/23/123 107/35/120 106/34/119 118/22/119 
f 120/24/124 108/36/121 107/35/120 119/23/123 
f 121/25/125 109/37/122 108/36/121 120/24/124 
f 111/15/115 99/27/115 109/37/122 121/25/125 
f 122/2/95 110/14/95 111/15/115 123/3/115 
f 124/4/98 112/16/98 110/14/95 122/2/95 
f 125/5/99 113/17/116 112/16/98 124/4/98 
f 126/6/100 114/18/100 113/17/116 125/5/99 
f 127/7/101 115/19/101 114/18/100 126/6/100 
f 128/8/117 116/20/117 115/19/101 127/7/101 
f 129/9/118 117/21/118 116/20/117 128/8/117 
f 130/10/119 118/22/119 117/21/118 129/9/118 
f 131/11/123 119/23/123 118/22/119 130/10/119 
f 132/12/124 120/24/124 119/23/123 131/11/123 
f 133/13/125 121/25/125 120/24/124 132/12/124 
f 123/3/115 111/15/115 121/25/125 133/13/125 
f 134/1/95 122/2/95 123/3/115 135/1/126 
f 136/1/98 124/4/98 122/2/95 134/1/95 
f 137/1/116 125/5/99 124/4/98 136/1/98 
f 138/1/100 126/6/100 125/5/99 137/1/116 
f 139/1/101 127/7/101 126/6/100 138/1/100 
f 140/1/117 128/8/117 127/7/101 139/1/101 
f 141/1/118 129/9/118 128/8/117 140/1/117 
f 142/1/119 130/10/119 129/9/118 141/1/118 
f 143/1/123 131/11/123 130/10/119 142/1/119 
f 144/1/124 132/12/124 131/11/123 143/1/123 
f 145/1/125 133/13/125 132/12/124 144/1/124 
f 135/1/126 123/3/115 133/13/125 145/1/125 
s 16
f 135/1/127 146/1/127 134/1/127 
f 134/1/127 146/1/127 136/1/127 
f 136/1/127 146/1/127 137/1/127 
f 137/1/127 146/1/127 138/1/127 
f 138/1/127 146/1/127 139/1/127 
f 139/1/127 146/1/127 140/1/127 
f 140/1/127 146/1/127 141/1/127 
f 141/1/127 146/1/127 142/1/127 
f 142/1/127 146/1/127 143/1/127 
f 143/1/127 146/1/127 144/1/127 
f 144/1/127 146/1/127 145/1/127 
f 145/1/127 146/1/127 135/1/127 
# 132 polygons - 24 triangles

