# 3ds Max Wavefront OBJ Exporter v0.97b - (c)2007 guruware
# File Created: 26.02.2015 18:06:06

mtllib Plataforma6.mtl

#
# object Hedra001
#

v  19.0786 62.8666 -2.2231
v  151.0178 54.9498 76.5356
v  151.0178 54.9498 -80.9818
v  151.0178 19.8428 -80.9818
v  19.0786 43.6806 -94.6393
v  -112.8606 53.0197 -80.9818
v  -112.8606 76.1449 -80.9818
v  -112.8606 76.1449 76.5356
v  -112.8606 53.0197 76.5356
v  19.0786 50.2540 97.7639
v  151.0178 19.8428 76.5356
v  19.0786 6.1607 -2.2231
# 12 vertices

vn 0.0599 0.9982 -0.0000
vn 0.1030 0.0000 -0.9947
vn -0.1030 0.0000 -0.9947
vn 0.1001 0.9950 -0.0000
vn -0.1589 0.0000 0.9873
vn 0.1589 0.0000 0.9873
vn 0.1031 -0.9947 -0.0000
vn -0.3347 -0.9423 -0.0000
vn 0.0784 0.9761 -0.2026
vn 0.0794 0.9890 0.1248
vn 1.0000 0.0000 -0.0000
vn -0.1143 -0.9090 0.4009
vn -0.1157 -0.9203 -0.3736
vn -1.0000 0.0000 -0.0000
# 14 vertex normals

vt 0.0000 0.0000 0.5000
vt 0.5000 -0.2500 0.2500
vt 0.5000 0.2500 0.2500
vt 0.2500 0.5000 0.2500
vt -0.2500 0.5000 0.2500
vt -0.2500 -0.5000 0.2500
vt 0.2500 -0.5000 0.2500
vt -0.5000 0.2500 0.2500
vt -0.5000 -0.2500 0.2500
vt 0.2500 -0.5000 -0.2500
vt -0.2500 -0.5000 -0.2500
vt 0.0000 -0.0000 -0.5000
vt -0.2500 0.5000 -0.2500
vt 0.2500 0.5000 -0.2500
vt 0.5000 -0.2500 -0.2500
vt 0.5000 0.2500 -0.2500
vt -0.5000 -0.2500 -0.2500
vt -0.5000 0.2500 -0.2500
vt 0.5000 0.0000 0.0000
vt 0.2500 -0.2500 0.5000
vt 0.2500 0.2500 0.5000
vt -0.2500 0.2500 0.5000
vt -0.2500 -0.2500 0.5000
vt -0.5000 0.0000 -0.0000
vt 0.2500 0.2500 -0.5000
vt 0.2500 -0.2500 -0.5000
vt -0.2500 -0.2500 -0.5000
vt -0.2500 0.2500 -0.5000
# 28 texture coords

g Hedra001
usemtl wire_228184153
s off
f 1/1/1 2/2/1 3/3/1 
f 3/4/2 4/5/2 5/1/2 
f 5/1/3 6/6/3 7/7/3 
f 7/8/4 8/9/4 1/1/4 
f 8/10/5 9/11/5 10/12/5 
f 10/12/6 11/13/6 2/14/6 
f 11/15/7 12/12/7 4/16/7 
f 9/17/8 6/18/8 12/12/8 
f 7/7/9 1/19/9 3/4/9 5/1/9 
f 2/14/10 1/19/10 8/10/10 10/12/10 
f 4/20/11 3/21/11 2/22/11 11/23/11 
f 12/24/12 11/13/12 10/12/12 9/11/12 
f 5/1/13 4/5/13 12/24/13 6/6/13 
f 7/25/14 6/26/14 9/27/14 8/28/14 
# 6 polygons - 8 triangles

