# 3ds Max Wavefront OBJ Exporter v0.97b - (c)2007 guruware
# File Created: 26.02.2015 18:02:51

mtllib Plataforma5.mtl

#
# object Hedra001
#

v  -6.3737 -26.7799 -60.8430
v  62.7583 -25.3867 -36.5656
v  62.7583 -25.3867 -85.1205
v  79.1766 -21.7789 -109.5443
v  121.9025 -23.6789 -124.5486
v  52.7705 -18.2778 -148.8260
v  9.7869 -30.3661 -163.9208
v  -32.9390 -56.5450 -178.9251
v  -75.6649 -69.0951 -163.9208
v  -118.6485 -57.0068 -148.8260
v  -187.7805 -60.8869 -124.5486
v  -145.0546 -54.9970 -109.5443
v  -128.6363 -35.4377 -85.1205
v  -128.6363 -35.4377 -36.5656
v  -59.5043 -37.8741 -60.8430
v  -145.0546 -39.4351 -12.1417
v  -187.7805 -60.8869 2.8625
v  -118.6485 -41.4448 27.1400
v  -75.6649 -30.3661 42.2348
v  -32.9390 -56.5450 57.2390
v  9.7869 -30.3661 42.2348
v  52.7705 -18.2778 27.1400
v  121.9025 -23.6789 2.8625
v  79.1766 -21.7789 -12.1417
v  174.8739 -20.7570 -75.9378
v  148.4678 -22.2323 -115.2195
v  148.4678 -21.1019 -115.2195
v  148.4678 -21.1019 -6.4665
v  148.4678 -22.2323 -6.4665
v  174.8739 -20.7570 -45.7483
v  -32.9390 -71.3846 57.2390
v  -75.6649 -88.0598 42.2348
v  9.7869 -56.2572 42.2348
v  52.7705 -38.3629 27.1400
v  79.1766 -69.8208 -12.1417
v  121.9025 -53.8799 2.8625
v  79.1766 -96.1668 -109.5443
v  52.7705 -68.3455 -148.8260
v  121.9025 -53.8799 -124.5486
v  62.7583 -119.2901 -36.5656
v  -6.3737 -138.7321 -60.8430
v  62.7583 -89.3800 -85.1205
v  -118.6485 -100.1481 27.1400
v  -187.7805 -114.9307 2.8625
v  -145.0546 -131.6060 -12.1417
v  -128.6363 -119.3626 -36.5656
v  -128.6363 -119.3626 -85.1205
v  -59.5043 -138.7321 -60.8430
v  -75.6649 -88.0598 -163.9208
v  -32.9390 -71.3846 -178.9251
v  9.7869 -56.2572 -163.9208
v  -145.0546 -131.6060 -109.5443
v  -187.7805 -139.2097 -124.5486
v  -118.6485 -134.3728 -148.8260
v  -214.3458 -132.2830 -6.4665
v  -214.3458 -92.5344 -6.4665
v  -240.7519 -130.7353 -45.7483
v  -240.7519 -130.7353 -75.9378
v  -214.3458 -92.5344 -115.2195
v  -214.3458 -132.2830 -115.2195
# 60 vertices

vn -0.0201 0.9998 -0.0000
vn 0.0611 0.9970 0.0478
vn -0.3815 0.8417 -0.3822
vn -0.0959 0.9887 -0.1150
vn 0.0352 0.9994 -0.0000
vn -0.3500 0.8936 0.2810
vn 0.0000 0.4973 0.8676
vn 0.0611 0.9970 -0.0478
vn 0.8299 0.0000 -0.5579
vn 0.8299 0.0000 0.5579
vn 0.3484 -0.9361 0.0483
vn 0.0565 -0.7604 0.6470
vn 0.3722 -0.6209 -0.6899
vn 0.3901 -0.7840 -0.4829
vn -0.0667 -0.7564 0.6506
vn -0.2698 -0.9629 -0.0000
vn 0.3484 -0.9361 -0.0483
vn 0.1216 -0.9810 0.1509
vn -0.8299 0.0000 0.5579
vn -0.8299 0.0000 -0.5579
vn 0.0046 0.9939 0.1102
vn -0.3575 0.9297 -0.0884
vn -0.0316 0.9570 -0.2884
vn -0.0014 0.9442 -0.3294
vn 0.0324 0.9955 0.0888
vn -0.0758 0.9936 -0.0843
vn -0.1474 0.9886 -0.0320
vn -0.1237 0.9855 0.1161
vn -0.0135 0.9989 0.0454
vn -0.0112 0.9999 -0.0007
vn -0.0115 0.9997 -0.0213
vn -0.2146 0.9767 -0.0000
vn 0.3313 -0.0000 0.9435
vn 0.3313 0.0000 0.9435
vn 0.7371 -0.6757 0.0153
vn 0.5591 -0.8234 0.0973
vn 0.5833 -0.8078 -0.0853
vn 0.6618 -0.7114 0.2365
vn 0.3459 -0.7064 0.6176
vn 0.2189 -0.8787 0.4243
vn 0.1638 -0.8934 0.4184
vn -0.0928 -0.4953 0.8638
vn -0.1919 -0.9615 0.1965
vn 0.4241 -0.7846 -0.4522
vn 0.0205 -0.7933 -0.6085
vn 0.3241 -0.9171 -0.2323
vn -0.2099 -0.9554 -0.2075
vn 0.2184 -0.9727 0.0782
vn 0.1058 -0.9924 0.0623
vn -0.0313 -0.8731 0.4865
vn -0.3313 0.0000 -0.9435
vn -0.3313 -0.0000 -0.9435
vn -0.8226 0.5686 -0.0000
vn -0.6104 0.7886 -0.0740
vn -0.5094 0.8579 -0.0676
vn -0.4802 0.8616 0.1642
vn -0.3313 -0.0000 0.9435
vn -0.3313 0.0000 0.9435
vn 0.3313 -0.0000 -0.9435
vn 0.3313 0.0000 -0.9435
# 60 vertex normals

vt 0.0639 0.0000 0.5000
vt 0.2302 -0.1028 0.4365
vt 0.2302 0.1028 0.4365
vt 0.2062 0.3726 0.2698
vt 0.2698 0.2062 0.3726
vt 0.3726 0.2698 0.2062
vt 0.0639 -0.0000 0.5000
vt 0.3726 0.2698 -0.2062
vt 0.2698 0.2062 -0.3726
vt 0.2062 0.3726 -0.2698
vt -0.2302 0.1028 0.4365
vt -0.2302 -0.1028 0.4365
vt -0.0639 0.0000 0.5000
vt -0.2062 0.3726 -0.2698
vt -0.2698 0.2062 -0.3726
vt -0.3726 0.2698 -0.2062
vt 0.2302 -0.1028 -0.4365
vt 0.0639 -0.0000 -0.5000
vt 0.2302 0.1028 -0.4365
vt -0.3726 0.2698 0.2062
vt -0.2698 0.2062 0.3726
vt -0.2062 0.3726 0.2698
vt -0.0639 0.0000 -0.5000
vt -0.2302 -0.1028 -0.4365
vt -0.2302 0.1028 -0.4365
vt -0.3726 -0.2698 0.2062
vt -0.2062 -0.3726 0.2698
vt -0.2698 -0.2062 0.3726
vt 0.2062 -0.3726 0.2698
vt 0.3726 -0.2698 0.2062
vt 0.2698 -0.2062 0.3726
vt -0.3726 -0.2698 -0.2062
vt -0.2698 -0.2062 -0.3726
vt -0.2062 -0.3726 -0.2698
vt -0.0639 -0.0000 -0.5000
vt 0.2062 -0.3726 -0.2698
vt 0.2698 -0.2062 -0.3726
vt 0.3726 -0.2698 -0.2062
vt 0.1028 0.4365 0.2302
vt -0.1028 0.4365 0.2302
vt -0.1028 -0.4365 0.2302
vt 0.1028 -0.4365 0.2302
vt -0.1028 0.4365 -0.2302
vt 0.1028 0.4365 -0.2302
vt 0.1028 -0.4365 -0.2302
vt -0.1028 -0.4365 -0.2302
# 46 texture coords

g Hedra001
usemtl wire_006135006
s off
f 1/1/1 2/2/1 3/3/1 
f 4/4/2 5/5/2 6/6/2 
f 7/3/3 8/7/3 9/2/3 
f 10/8/4 11/9/4 12/10/4 
f 13/11/5 14/12/5 15/13/5 
f 16/14/6 17/15/6 18/16/6 
f 19/17/7 20/18/7 21/19/7 
f 22/20/8 23/21/8 24/22/8 
f 25/1/9 26/2/9 27/3/9 
f 28/11/10 29/12/10 30/13/10 
f 31/23/11 32/24/11 33/25/11 
f 34/26/12 35/27/12 36/28/12 
f 37/29/13 38/30/13 39/31/13 
f 40/17/14 41/18/14 42/19/14 
f 43/32/15 44/33/15 45/34/15 
f 46/24/16 47/25/16 48/35/16 
f 49/12/17 50/13/17 51/11/17 
f 52/36/18 53/37/18 54/38/18 
f 55/24/19 56/25/19 57/35/19 
f 58/18/20 59/19/20 60/17/20 
f 1/1/21 3/3/21 4/5/21 6/4/21 
f 1/1/22 6/4/22 7/39/22 9/40/22 
f 1/1/23 9/40/23 10/22/23 12/21/23 
f 1/1/24 12/21/24 13/11/24 15/13/24 
f 15/13/25 14/12/25 16/28/25 18/27/25 
f 15/13/26 18/27/26 19/41/26 21/42/26 
f 15/13/27 21/42/27 22/29/27 24/31/27 
f 15/13/28 24/31/28 2/2/28 1/1/28 
f 24/22/29 23/21/29 28/11/29 30/13/29 
f 24/22/30 30/13/30 25/1/30 27/3/30 
f 24/22/31 27/3/31 5/5/31 4/4/31 
f 24/22/32 4/4/32 3/39/32 2/40/32 
f 23/10/33 22/9/33 21/19/33 20/18/33 
f 23/10/33 20/18/33 31/23/33 33/25/33 
f 23/10/34 33/25/34 34/15/34 36/14/34 
f 23/10/34 36/14/34 29/43/34 28/44/34 
f 36/28/35 35/27/35 40/41/35 42/42/35 
f 36/28/36 42/42/36 37/29/36 39/31/36 
f 36/28/37 39/31/37 26/2/37 25/1/37 
f 36/28/38 25/1/38 30/13/38 29/12/38 
f 35/37/39 34/36/39 33/45/39 32/46/39 
f 35/37/40 32/46/40 43/34/40 45/33/40 
f 35/37/41 45/33/41 46/24/41 48/35/41 
f 35/37/42 48/35/42 41/18/42 40/17/42 
f 48/35/43 47/25/43 52/15/43 54/14/43 
f 48/35/44 54/14/44 49/43/44 51/44/44 
f 48/35/45 51/44/45 38/10/45 37/9/45 
f 48/35/46 37/9/46 42/19/46 41/18/46 
f 47/45/47 46/46/47 45/34/47 44/33/47 
f 47/45/48 44/33/48 55/24/48 57/35/48 
f 47/45/49 57/35/49 58/18/49 60/17/49 
f 47/45/50 60/17/50 53/37/50 52/36/50 
f 60/41/51 59/42/51 11/29/51 10/31/51 
f 60/41/51 10/31/51 9/2/51 8/7/51 
f 60/41/51 8/7/51 50/13/51 49/12/51 
f 60/41/52 49/12/52 54/28/52 53/27/52 
f 59/19/53 58/18/53 57/35/53 56/25/53 
f 59/19/54 56/25/54 17/15/54 16/14/54 
f 59/19/55 16/14/55 14/43/55 13/44/55 
f 59/19/56 13/44/56 12/10/56 11/9/56 
f 56/45/57 55/46/57 44/34/57 43/33/57 
f 56/45/57 43/33/57 32/24/57 31/23/57 
f 56/45/57 31/23/57 20/18/57 19/17/57 
f 56/45/58 19/17/58 18/37/58 17/36/58 
f 8/7/59 7/3/59 6/5/59 5/4/59 
f 8/7/60 5/4/60 27/39/60 26/40/60 
f 8/7/60 26/40/60 39/22/60 38/21/60 
f 8/7/60 38/21/60 51/11/60 50/13/60 
# 48 polygons - 20 triangles

