# 3ds Max Wavefront OBJ Exporter v0.97b - (c)2007 guruware
# File Created: 16.02.2015 14:08:13

mtllib meteorito3.mtl

#
# object Hedra001
#

v  -22.6839 10.9947 -4.1976
v  -20.4135 5.0510 -0.5242
v  -13.9594 -11.8461 -10.9671
v  -13.9594 -11.8461 -18.3140
v  -20.4135 5.0510 -28.7570
v  -22.6839 10.9947 -25.0835
v  -17.6329 -14.1164 -12.3703
v  -34.5300 -3.6734 -5.9161
v  -36.8003 2.2703 -9.5896
v  -26.3573 8.7244 -26.4867
v  -33.1268 -0.0000 -3.6458
v  -12.2409 -0.0000 -3.6458
v  -8.5674 2.2703 -9.5896
v  -19.0104 8.7244 -26.4867
v  -10.8378 -3.6734 -5.9161
v  -27.7348 -14.1164 -12.3703
v  -31.4083 -11.8461 -18.3140
v  -24.9542 5.0510 -28.7570
v  -31.4083 -11.8461 -10.9671
v  -24.9542 5.0510 -0.5242
v  -27.7348 -14.1164 -16.9109
v  -10.8378 -3.6734 -23.3650
v  -8.5674 2.2703 -19.6916
v  -19.0104 8.7244 -2.7945
v  -12.2409 0.0000 -25.6353
v  -33.1268 -0.0000 -25.6353
v  -36.8003 2.2703 -19.6916
v  -26.3573 8.7244 -2.7945
v  -34.5300 -3.6734 -23.3650
v  -17.6329 -14.1164 -16.9109
v  -11.6891 -10.4430 -14.6406
v  -11.6891 10.4430 -14.6406
v  -17.6329 14.1164 -12.3703
v  -34.5300 3.6734 -5.9161
v  -34.5300 3.6734 -23.3650
v  -17.6329 14.1164 -16.9109
v  -8.5674 -2.2703 -19.6916
v  -19.0104 -8.7244 -2.7945
v  -26.3573 -8.7244 -2.7945
v  -36.8003 -2.2703 -19.6916
v  -20.4135 -5.0510 -0.5242
v  -13.9594 11.8461 -10.9671
v  -13.9594 11.8461 -18.3140
v  -20.4135 -5.0510 -28.7570
v  -26.3573 -8.7244 -26.4867
v  -36.8003 -2.2703 -9.5896
v  -22.6839 -10.9947 -4.1976
v  -22.6839 -10.9947 -25.0835
v  -10.8378 3.6734 -23.3650
v  -27.7348 14.1164 -16.9109
v  -31.4083 11.8461 -10.9671
v  -24.9542 -5.0510 -0.5242
v  -31.4083 11.8461 -18.3140
v  -24.9542 -5.0510 -28.7570
v  -19.0104 -8.7244 -26.4867
v  -8.5674 -2.2703 -9.5896
v  -27.7348 14.1164 -12.3703
v  -10.8378 3.6734 -5.9161
v  -33.6786 -10.4430 -14.6406
v  -33.6786 10.4430 -14.6406
v  -22.6839 7.7091 -27.1142
v  -22.6839 7.7091 -2.1670
v  -14.9747 -12.4736 -14.6406
v  -35.1575 -0.0000 -22.3497
v  -14.9747 12.4736 -14.6406
v  -22.6839 -7.7091 -2.1670
v  -22.6839 -7.7091 -27.1142
v  -30.3930 12.4736 -14.6406
v  -10.2103 -0.0000 -6.9315
v  -30.3930 -12.4736 -14.6406
v  -10.2103 0.0000 -22.3497
v  -35.1575 -0.0000 -6.9315
# 72 vertices

vn 0.9342 0.3568 -0.0000
vn -0.5774 -0.5774 -0.5774
vn 0.0000 0.9342 0.3568
vn 0.5774 -0.5774 -0.5774
vn -0.9342 0.3568 -0.0000
vn 0.5774 -0.5774 0.5774
vn 0.0000 0.9342 -0.3568
vn -0.5774 -0.5774 0.5774
vn 0.3568 0.0000 0.9342
vn 0.3568 0.0000 -0.9342
vn -0.0000 -0.9342 -0.3568
vn -0.5774 0.5774 0.5774
vn -0.5774 0.5774 -0.5774
vn 0.9342 -0.3568 -0.0000
vn 0.5774 0.5774 0.5774
vn -0.9342 -0.3568 0.0000
vn -0.0000 -0.9342 0.3568
vn 0.5774 0.5774 -0.5774
vn -0.3568 0.0000 -0.9342
vn -0.3568 0.0000 0.9342
vn -0.0000 0.5257 -0.8507
vn 0.0000 0.5257 -0.8507
vn 0.0000 0.5257 0.8507
vn -0.0000 0.5257 0.8507
vn 0.5257 -0.8507 0.0000
vn 0.5257 -0.8507 -0.0000
vn -0.8507 -0.0000 -0.5257
vn -0.8507 0.0000 -0.5257
vn 0.5257 0.8507 0.0000
vn 0.5257 0.8507 -0.0000
vn -0.0000 -0.5257 0.8507
vn 0.0000 -0.5257 0.8507
vn 0.0000 -0.5257 -0.8507
vn -0.0000 -0.5257 -0.8507
vn -0.5257 0.8507 0.0000
vn -0.5257 0.8507 -0.0000
vn 0.8507 0.0000 0.5257
vn 0.8507 -0.0000 0.5257
vn -0.5257 -0.8507 -0.0000
vn -0.5257 -0.8507 0.0000
vn 0.8507 -0.0000 -0.5257
vn 0.8507 0.0000 -0.5257
vn -0.8507 -0.0000 0.5257
vn -0.8507 0.0000 0.5257
# 44 vertex normals

vt -0.3699 0.3894 0.0000
vt -0.5000 0.1789 0.0804
vt -0.1301 -0.4196 0.3090
vt 0.1301 -0.4196 0.3090
vt 0.5000 0.1789 0.0804
vt 0.3699 0.3894 0.0000
vt 0.3090 0.1301 -0.4196
vt 0.1789 -0.0804 -0.5000
vt -0.4196 -0.3090 -0.1301
vt -0.5000 -0.1789 0.0804
vt -0.1301 0.4196 0.3090
vt 0.0804 0.5000 0.1789
vt -0.3699 -0.3894 -0.0000
vt 0.3699 -0.3894 -0.0000
vt 0.5000 -0.1789 0.0804
vt 0.1301 0.4196 0.3090
vt 0.0804 0.5000 -0.1789
vt -0.1301 0.4196 -0.3090
vt -0.5000 -0.1789 -0.0804
vt -0.4196 -0.3090 0.1301
vt 0.1789 -0.0804 0.5000
vt 0.3090 0.1301 0.4196
vt 0.1301 -0.4196 -0.3090
vt -0.1301 -0.4196 -0.3090
vt -0.5000 0.1789 -0.0804
vt 0.5000 0.1789 -0.0804
vt -0.3090 -0.1301 -0.4196
vt -0.1789 0.0804 -0.5000
vt 0.4196 0.3090 -0.1301
vt -0.0804 -0.5000 0.1789
vt -0.3699 0.3894 -0.0000
vt 0.0804 -0.5000 0.1789
vt -0.4196 0.3090 -0.1301
vt 0.1789 0.0804 -0.5000
vt 0.3090 -0.1301 -0.4196
vt 0.3699 0.3894 -0.0000
vt -0.0804 0.5000 0.1789
vt 0.4196 -0.3090 -0.1301
vt -0.1789 -0.0804 -0.5000
vt -0.3090 0.1301 -0.4196
vt 0.3699 -0.3894 0.0000
vt 0.1301 0.4196 -0.3090
vt 0.5000 -0.1789 -0.0804
vt -0.3090 0.1301 0.4196
vt -0.1789 -0.0804 0.5000
vt 0.4196 -0.3090 0.1301
vt -0.0804 0.5000 -0.1789
vt -0.3699 -0.3894 0.0000
vt 0.2731 0.0000 0.4418
vt 0.3894 0.0000 0.3699
vt 0.1789 0.0804 0.5000
vt 0.3090 -0.1301 0.4196
vt 0.2731 -0.0000 -0.4418
vt 0.3894 0.0000 -0.3699
vt 0.3894 -0.0000 -0.3699
vt 0.2731 -0.0000 0.4418
vt 0.3894 -0.0000 0.3699
vt -0.2731 -0.0000 -0.4418
vt -0.3894 -0.0000 -0.3699
vt -0.2731 0.0000 0.4418
vt -0.1789 0.0804 0.5000
vt -0.3894 0.0000 0.3699
vt -0.3090 -0.1301 0.4196
vt -0.2731 -0.0000 0.4418
vt -0.3894 -0.0000 0.3699
vt -0.2731 0.0000 -0.4418
vt -0.3894 0.0000 -0.3699
# 67 texture coords

g Hedra001
usemtl wire_086086086
s off
f 1/1/1 2/2/1 3/3/1 4/4/1 
f 1/1/1 4/4/1 5/5/1 6/6/1 
f 4/7/2 7/8/2 8/9/2 9/10/2 
f 4/7/2 9/10/2 10/11/2 5/12/2 
f 9/10/3 11/13/3 12/14/3 13/15/3 
f 9/10/3 13/15/3 14/16/3 10/11/3 
f 13/17/4 15/18/4 16/19/4 17/20/4 
f 13/17/4 17/20/4 18/21/4 14/22/4 
f 17/23/5 19/24/5 20/25/5 1/1/5 
f 17/23/5 1/1/5 6/6/5 18/26/5 
f 19/27/6 21/28/6 22/29/6 23/5/6 
f 19/27/6 23/5/6 24/4/6 20/30/6 
f 23/5/7 25/6/7 26/31/7 27/2/7 
f 23/5/7 27/2/7 28/3/7 24/4/7 
f 27/32/8 29/3/8 30/2/8 3/33/8 
f 27/32/8 3/33/8 2/34/8 28/35/8 
f 7/25/9 31/31/9 32/36/9 33/26/9 
f 7/25/9 33/26/9 34/23/9 8/24/9 
f 31/31/10 30/2/10 29/3/10 35/4/10 
f 31/31/10 35/4/10 36/5/10 32/36/10 
f 25/6/11 37/26/11 38/23/11 39/24/11 
f 25/6/11 39/24/11 40/25/11 26/31/11 
f 39/27/12 41/28/12 42/29/12 36/5/12 
f 39/27/12 36/5/12 35/4/12 40/30/12 
f 33/37/13 43/16/13 44/15/13 45/38/13 
f 33/37/13 45/38/13 46/39/13 34/40/13 
f 43/16/14 42/11/14 41/10/14 47/13/14 
f 43/16/14 47/13/14 48/41/14 44/15/14 
f 37/37/15 49/16/15 50/15/15 51/38/15 
f 37/37/15 51/38/15 52/39/15 38/40/15 
f 51/18/16 53/42/16 54/43/16 48/41/16 
f 51/18/16 48/41/16 47/13/16 52/19/16 
f 45/18/17 55/42/17 56/43/17 12/14/17 
f 45/18/17 12/14/17 11/13/17 46/19/17 
f 55/44/18 54/45/18 53/46/18 57/43/18 
f 55/44/18 57/43/18 58/42/18 56/47/18 
f 49/16/19 22/11/19 21/10/19 59/48/19 
f 49/16/19 59/48/19 60/41/19 50/15/19 
f 59/48/20 16/19/20 15/18/20 58/42/20 
f 59/48/20 58/42/20 57/43/20 60/41/20 
f 61/49/21 6/50/21 5/51/21 10/52/21 
f 61/49/22 10/52/22 14/22/22 18/21/22 
f 61/49/22 18/21/22 6/50/22 
f 62/53/23 1/54/23 20/8/23 24/7/23 
f 62/53/24 24/7/24 28/35/24 2/34/24 
f 62/53/24 2/34/24 1/54/24 
f 63/53/25 4/7/25 3/35/25 30/34/25 
f 63/53/26 30/34/26 31/55/26 7/8/26 
f 63/53/26 7/8/26 4/7/26 
f 64/53/27 29/35/27 27/34/27 26/55/27 
f 64/53/28 26/55/28 40/8/28 35/7/28 
f 64/53/28 35/7/28 29/35/28 
f 65/56/29 32/57/29 36/51/29 42/52/29 
f 65/56/30 42/52/30 43/22/30 33/21/30 
f 65/56/30 33/21/30 32/57/30 
f 66/58/31 41/28/31 39/27/31 38/40/31 
f 66/58/32 38/40/32 52/39/32 47/59/32 
f 66/58/31 47/59/31 41/28/31 
f 67/60/33 44/61/33 48/62/33 54/45/33 
f 67/60/33 54/45/33 55/44/33 45/63/33 
f 67/60/34 45/63/34 44/61/34 
f 68/60/35 53/44/35 51/63/35 50/61/35 
f 68/60/36 50/61/36 60/62/36 57/45/36 
f 68/60/36 57/45/36 53/44/36 
f 69/64/37 56/45/37 58/44/37 15/63/37 
f 69/64/38 15/63/38 13/61/38 12/65/38 
f 69/64/37 12/65/37 56/45/37 
f 70/66/39 16/39/39 59/67/39 21/28/39 
f 70/66/40 21/28/40 19/27/40 17/40/40 
f 70/66/39 17/40/39 16/39/39 
f 71/49/41 23/51/41 22/52/41 49/22/41 
f 71/49/42 49/22/42 37/21/42 25/50/42 
f 71/49/41 25/50/41 23/51/41 
f 72/58/43 11/59/43 9/28/43 8/27/43 
f 72/58/44 8/27/44 34/40/44 46/39/44 
f 72/58/44 46/39/44 11/59/44 
# 64 polygons - 12 triangles

