# 3ds Max Wavefront OBJ Exporter v0.97b - (c)2007 guruware
# File Created: 16.02.2015 14:09:08

mtllib meteorito4.mtl

#
# object Hedra001
#

v  -17.5716 14.2760 -14.6406
v  -10.0330 3.6149 -7.1021
v  -10.0330 3.6149 -22.1791
v  -15.1453 -3.6149 -27.2914
v  -22.6839 -14.2760 -19.7529
v  -30.2224 -3.6149 -27.2914
v  -35.3347 3.6149 -22.1791
v  -35.3347 3.6149 -7.1021
v  -27.7961 14.2760 -14.6406
v  -30.2224 -3.6149 -1.9898
v  -22.6839 -14.2760 -9.5283
v  -15.1453 -3.6149 -1.9898
# 12 vertices

vn 0.8165 0.5774 -0.0000
vn 0.0000 -0.5774 -0.8165
vn -0.8165 0.5774 -0.0000
vn 0.0000 -0.5774 0.8165
vn 0.0000 0.5774 -0.8165
vn -0.0000 0.5774 -0.8165
vn -0.0000 0.5774 0.8165
vn 0.0000 0.5774 0.8165
vn 0.8165 -0.5774 -0.0000
vn -0.8165 -0.5774 0.0000
vn -0.8165 -0.5774 -0.0000
# 11 vertex normals

vt 0.0000 0.5000 0.2021
vt -0.2979 0.1266 0.5000
vt 0.2979 0.1266 0.5000
vt -0.1266 0.2979 0.5000
vt -0.5000 0.0000 0.2021
vt -0.1266 -0.2979 0.5000
vt 0.2979 0.1266 -0.5000
vt -0.2979 0.1266 -0.5000
vt 0.0000 0.5000 -0.2021
vt -0.1266 -0.2979 -0.5000
vt -0.5000 0.0000 -0.2021
vt -0.1266 0.2979 -0.5000
vt 0.5000 0.2021 0.0000
vt 0.1266 0.5000 0.2979
vt 0.1266 -0.5000 0.2979
vt 0.5000 -0.2021 0.0000
vt 0.1266 -0.5000 -0.2979
vt 0.1266 0.5000 -0.2979
vt -0.5000 -0.1266 0.2979
vt -0.2021 -0.5000 0.0000
vt 0.2021 -0.5000 0.0000
vt 0.5000 -0.1266 0.2979
vt -0.5000 -0.1266 -0.2979
vt 0.5000 -0.1266 -0.2979
# 24 texture coords

g Hedra001
usemtl wire_086086086
s off
f 1/1/1 2/2/1 3/3/1 
f 4/4/2 5/5/2 6/6/2 
f 7/7/3 8/8/3 9/9/3 
f 10/10/4 11/11/4 12/12/4 
f 1/13/5 3/14/5 4/4/5 6/6/5 
f 1/13/6 6/6/6 7/15/6 9/16/6 
f 9/16/7 8/17/7 10/10/7 12/12/7 
f 9/16/8 12/12/8 2/18/8 1/13/8 
f 12/19/9 11/20/9 5/21/9 4/22/9 
f 12/19/9 4/22/9 3/3/9 2/2/9 
f 11/20/10 10/23/10 8/8/10 7/7/10 
f 11/20/11 7/7/11 6/24/11 5/21/11 
# 8 polygons - 4 triangles

